<svg enable-background="new 0 0 32 32" height="32" viewBox="0 0 32 32" width="32" xmlns="http://www.w3.org/2000/svg"><path d="m2.126-374.996v-2.25c.002-.4.463-1.115.479-1.133 3.529-3.59 8.357-5.621 13.396-5.621 5.051 0 9.896 2.041 13.426 5.65.006 0 .444.703.444 1.104v2.25c0 .824-.604 1.805-1.344 2.172l-.315.156c-.732.371-1.927.335-2.642-.07l-2.646-1.512c-.719-.411-1.315-1.424-1.315-2.246v-1.503c-3.47-1.996-7.755-1.993-11.226-.001v1.504c0 .822-.599 1.832-1.313 2.246l-2.647 1.508c-.713.409-1.902.445-2.644.074l-.313-.156c-.738-.371-1.345-1.348-1.345-2.172zm27.873 12.996v8c0 1.1-.897 2-2 2h-23.998c-1.101 0-2-.9-2-2v-8c0-1.102.637-2.637 1.413-3.414l5.172-5.174c.775-.775 2.314-1.412 3.414-1.412v-2c.943-1.258 2.426-2 3.999-2 1.574 0 3.06.742 4 2v2c1.103 0 2.638.637 3.414 1.412l5.173 5.174c.776.777 1.413 2.314 1.413 3.414zm-17.999 5c0-.553-.445-1-1-1h-2c-.553 0-1 .447-1 1s.447 1 1 1h2c.555 0 1-.447 1-1zm0-4c0-.553-.445-1-1-1h-2c-.553 0-1 .447-1 1s.447 1 1 1h2c.555 0 1-.447 1-1zm0-4c0-.553-.445-1-1-1h-2c-.553 0-1 .447-1 1s.447 1 1 1h2c.555 0 1-.447 1-1zm5.999 8c0-.553-.444-1-1-1h-2c-.552 0-.999.447-.999 1s.447 1 .999 1h2c.554 0 1-.447 1-1zm0-4c0-.553-.444-1-1-1h-2c-.552 0-.999.447-.999 1s.447 1 .999 1h2c.554 0 1-.447 1-1zm0-4c0-.553-.444-1-1-1h-2c-.552 0-.999.447-.999 1s.447 1 .999 1h2c.554 0 1-.447 1-1zm6 8c0-.553-.444-1-1-1h-2c-.551 0-1 .447-1 1s.449 1 1 1h2c.554 0 1-.447 1-1zm0-4c0-.553-.444-1-1-1h-2c-.551 0-1 .447-1 1s.449 1 1 1h2c.554 0 1-.447 1-1zm0-4c0-.553-.444-1-1-1h-2c-.551 0-1 .447-1 1s.449 1 1 1h2c.554 0 1-.447 1-1z" transform="translate(0 384)"/></svg>